<svg width="1291" height="1197" viewBox="0 0 1291 1197" fill="none" xmlns="http://www.w3.org/2000/svg">
<path d="M983.647 463.297C953.723 453.773 831.092 463.885 882.074 355.904C930.339 253.727 805.061 212.612 738.285 215.51C660.558 218.885 633.31 212.064 573.908 158.297C548.073 134.944 488.698 92.9488 447.761 80.9215C333.72 33.6915 316.616 105.75 313.438 114.023C309.795 123.508 306.792 131.597 305.156 149.106C301.501 188.222 329.68 206.035 339.981 247.857C371.44 386.823 334.1 423.016 303.745 482.909C277.371 534.946 262.721 582.893 266.61 629.748C270.498 676.603 293.333 714.713 331.646 742.804C369.469 764.634 414.308 756.375 451.55 775.25C492.16 800.653 496.177 819.898 508.178 870.615C512.399 888.451 512.811 904.177 514.266 916.279C518.089 948.077 520.866 951.172 522.348 961.786C524.635 978.158 534.78 992.408 534.78 992.408C534.78 992.408 539.589 1002.56 550.066 1008.26C560.544 1013.96 563.036 1013.76 573.66 1014.94C584.285 1016.11 678.173 1023.79 676.884 956.189C675.595 888.583 829.317 939.661 866.423 934.422C947.57 922.969 823.656 816.95 999.59 853.281C1142.97 882.922 1289 560.348 983.647 463.297Z" fill="#F4F6FF"/>
</svg>
