<svg xmlns="http://www.w3.org/2000/svg" viewBox="0 0 1658 1717" xmlns:v="https://vecta.io/nano"><linearGradient id="A" gradientUnits="userSpaceOnUse" x1="408.13" y1="1545.165" x2="1554.928" y2="356.519"><stop offset=".24" stop-color="#291057"/><stop offset=".698" stop-color="#0e4689"/><stop offset="1" stop-color="#09f"/></linearGradient><path d="M1652.4 779.2c-28.9 104.8-113.1 60.4-136.8 141.8-23.6 81.4 43.1 177-52.4 195.4-115.2 22.2-161.2 143.3-52.1 248.5 46.8 45.1 56.8 100.3 35 159.5-7.2 19.5-72.1 118.8-220.7 72.4-163.2-51-233.6 27.2-252.3 50.5-41.3 51.3-267.9 176.6-415.8-125.6-91.1-186.2-207.4-211.2-283.3-203-81.8 8.9-160.9-34.3-195.1-109.2-30.2-66.1-39.8-156.5 19.4-270.6 137.5-265.4 428.3-112.4 433.4-234.8S439.9 342 587.8 326.7s219.1-48 270.1-124.5c26.3-39.5 48.6-45 63.9-41.1 12.5 3.2 24.7 14.2 27.4 26.8 0 .2.1.4.1.6 9.6 43.9 58 66.9 98.1 46.6 28.9-14.6 61.7-18.2 94.1 5.8 25.5 18.9 48.4 39.7 69.1 58.5 31.8 29.1 7.9 105 59.1 117.6 28 6.9 56.4-10.1 64.3-37.8 37.4-130.6 146.3-103.1 181.5-60 58.6 72-18.9 65 26.7 218.2 18.5 61.9 143.1 122.2 110.2 241.8z" opacity=".1" fill="url(#A)"/><linearGradient id="B" gradientUnits="userSpaceOnUse" x1="353.126" y1="1464.446" x2="1499.924" y2="275.799"><stop offset=".24" stop-color="#291057"/><stop offset=".698" stop-color="#0e4689"/><stop offset="1" stop-color="#09f"/></linearGradient><path d="M1597.4 698.5c-28.9 104.8-113.1 60.4-136.8 141.8-23.6 81.4 43.1 177-52.4 195.4-115.2 22.2-161.2 143.3-52.1 248.5 46.8 45.1 56.8 100.3 35 159.5-7.2 19.5-72.1 118.8-220.7 72.4-163.2-51-233.6 27.2-252.3 50.5-41.3 51.3-267.9 176.6-415.8-125.6-91.1-186.2-207.4-211.2-283.3-203-81.8 8.9-160.9-34.3-195.1-109.2-30.2-66.1-39.8-156.5 19.4-270.6 137.5-265.4 428.3-112.4 433.4-234.8S384.9 261.3 532.8 246s219.1-48 270.1-124.5c26.3-39.5 48.6-45 63.9-41.1 12.5 3.2 24.7 14.2 27.4 26.8 0 .2.1.4.1.6 9.6 43.9 58 66.9 98.1 46.6 28.9-14.6 61.7-18.2 94.1 5.8 25.5 18.9 48.4 39.7 69.1 58.5 31.8 29.1 7.9 105 59.1 117.6 28 6.9 56.4-10.1 64.3-37.8 37.4-130.6 146.3-103.1 181.5-60 58.6 72-18.9 65 26.7 218.2 18.5 61.9 143.1 122.2 110.2 241.8z" opacity=".2" fill="url(#B)"/><linearGradient id="C" gradientUnits="userSpaceOnUse" x1="367.152" y1="1385.087" x2="1513.949" y2="196.441"><stop offset=".24" stop-color="#291057"/><stop offset=".698" stop-color="#0e4689"/><stop offset="1" stop-color="#09f"/></linearGradient><path d="M1611.5 619.2c-28.9 104.8-113.1 60.4-136.8 141.8-23.6 81.4 43.1 177-52.4 195.4-115.2 22.2-161.2 143.3-52.1 248.5 46.8 45.1 56.8 100.3 35 159.5-7.2 19.5-72.1 118.8-220.7 72.4-163.2-51-233.6 27.2-252.3 50.5-41.3 51.3-267.9 176.6-415.8-125.6-91.1-186.2-207.4-211.2-283.3-203-81.8 8.9-160.9-34.3-195.1-109.2C7.8 983.4-1.8 893 57.4 778.9c137.5-265.4 428.3-112.4 433.4-234.8S399 182 546.9 166.7 766 118.7 817 42.2c26.3-39.5 48.6-45 63.9-41.1 12.5 3.2 24.7 14.2 27.4 26.8 0 .2.1.4.1.6 9.6 43.9 58 66.9 98.1 46.6 28.9-14.6 61.7-18.2 94.1 5.8 25.5 18.9 48.4 39.7 69.1 58.5 31.8 29.1 7.9 105 59.1 117.6 28 6.9 56.4-10.1 64.3-37.8 37.4-130.6 146.3-103.1 181.5-60 58.6 72-18.9 65 26.7 218.2 18.5 61.9 143.1 122.2 110.2 241.8z" fill="url(#C)"/></svg>