<svg xmlns="http://www.w3.org/2000/svg" xmlns:xlink="http://www.w3.org/1999/xlink" viewBox="0 0 1463.99 1402.57" xmlns:v="https://vecta.io/nano"><style><![CDATA[.B{fill:#fff}.C{opacity:.15}.D{opacity:.07}]]></style><defs><linearGradient id="A" x1="736.99" y1="80.29" x2="736.99" y2="1352.71" gradientUnits="userSpaceOnUse"><stop offset=".24" stop-color="#291057"/><stop offset=".7" stop-color="#0e4689"/><stop offset="1" stop-color="#09f"/></linearGradient><linearGradient id="B" x1="726.99" y1="40.29" x2="726.99" y2="1312.71" xlink:href="#A"/><linearGradient id="C" x1="726.99" y1="0" x2="726.99" y2="1272.43" xlink:href="#A"/><clipPath id="D" transform="translate(0 49.86)"><path d="M1061.59 237.3c-44.11 8.8-193.26 121.5-198-87.2C859.11-47.4 673.65-12.5 590.76 44.8c-96.49 66.7-135.46 77.6-245.45 40.7C297.5 69.5 237 49.3 177.25 62.9-2.13 103.8-5 242.8 1.86 277.6c.76 3.9 1.33 7.7 1.9 11.6 5.9 43.1 67.12 82.5 127.86 82.5 144 0 128.33 97.6 128.33 215 0 102 58.08 107 93.16 177S325.64 880 384 969.7c68 104.5 144.49 88.5 203.91 88.5 85.84 0 124.24 58.8 141.07 114.6 10 33.8 30.68 63 58.55 82.9l.67.5c0 8.3 101.62 46.3 152.66-34.1 76.72-120.8 231.28-119.9 275-157.4 95.63-82-129.85-149.4 116.83-231.8 201.06-67.1 178.91-685.6-271.1-595.6z" fill="none"/></clipPath><linearGradient id="E" x1="925.4" y1="641.46" x2="616.45" y2="332.51" gradientUnits="userSpaceOnUse"><stop offset="0" stop-color="#fff" stop-opacity=".7"/><stop offset=".01" stop-color="#f4f4f7" stop-opacity=".7"/><stop offset=".09" stop-color="#c0bdce" stop-opacity=".7"/><stop offset=".18" stop-color="#948eab" stop-opacity=".7"/><stop offset=".27" stop-color="#6f688f" stop-opacity=".7"/><stop offset=".36" stop-color="#534a79" stop-opacity=".7"/><stop offset=".47" stop-color="#3f356a" stop-opacity=".7"/><stop offset=".6" stop-color="#342961" stop-opacity=".7"/><stop offset=".81" stop-color="#30255e" stop-opacity=".7"/></linearGradient><linearGradient id="F" x1="913.94" y1="487.72" x2="298.86" y2="-127.36" gradientUnits="userSpaceOnUse"><stop offset="0" stop-color="#0d1c4e"/><stop offset=".14" stop-color="#0d1f53"/><stop offset=".29" stop-color="#0c2960"/><stop offset=".45" stop-color="#0a3876"/><stop offset=".61" stop-color="#084e95"/><stop offset=".78" stop-color="#056abd"/><stop offset=".94" stop-color="#018ced"/><stop offset="1" stop-color="#09f"/></linearGradient></defs><g transform="translate(0 49.86)"><path d="M1071.59 317.58c-44.11 8.8-193.26 121.5-198-87.2-4.47-197.5-189.93-162.6-272.82-105.3-96.49 66.7-135.46 77.6-245.45 40.7-47.81-16-108.36-36.2-168.06-22.6C7.87 184.08 5 323.08 11.86 357.88c.76 3.9 1.33 7.7 1.9 11.6 5.9 43.1 67.12 82.5 127.86 82.5 144 0 128.33 97.6 128.33 215 0 102 58.08 107 93.16 177S335.64 960.28 394 1050c68 104.5 144.49 88.5 203.91 88.5 85.84 0 124.24 58.8 141.07 114.6 10 33.81 30.68 63 58.55 82.9l.67.5c0 8.3 101.62 46.3 152.66-34.1 76.72-120.8 231.28-119.9 275-157.4 95.63-82-129.85-149.4 116.83-231.8 201.06-67.12 178.91-685.62-271.1-595.62z" opacity=".1" fill="url(#A)"/><path d="M1061.59 277.58c-44.11 8.8-193.26 121.5-198-87.2-4.48-197.5-189.94-162.6-272.83-105.3-96.49 66.7-135.46 77.6-245.45 40.7-47.81-16-108.36-36.2-168.06-22.6C-2.13 144.08-5 283.08 1.86 317.88c.76 3.9 1.33 7.7 1.9 11.6 5.9 43.1 67.12 82.5 127.86 82.5 144 0 128.33 97.6 128.33 215 0 102 58.08 107 93.16 177S325.64 920.28 384 1010c68 104.5 144.49 88.5 203.91 88.5 85.84 0 124.24 58.8 141.07 114.6 10 33.81 30.68 63 58.55 82.9l.67.5c0 8.3 101.62 46.3 152.66-34.1 76.72-120.8 231.28-119.9 275-157.4 95.63-82-129.85-149.4 116.83-231.8 201.06-67.12 178.91-685.62-271.1-595.62z" opacity=".2" fill="url(#B)"/><path d="M1061.59 237.3c-44.11 8.8-193.26 121.5-198-87.2C859.11-47.4 673.65-12.5 590.76 44.8c-96.49 66.7-135.46 77.6-245.45 40.7C297.5 69.5 237 49.3 177.25 62.9-2.13 103.8-5 242.8 1.86 277.6c.76 3.9 1.33 7.7 1.9 11.6 5.9 43.1 67.12 82.5 127.86 82.5 144 0 128.33 97.6 128.33 215 0 102 58.08 107 93.16 177S325.64 880 384 969.7c68 104.5 144.49 88.5 203.91 88.5 85.84 0 124.24 58.8 141.07 114.6 10 33.8 30.68 63 58.55 82.9l.67.5c0 8.3 101.62 46.3 152.66-34.1 76.72-120.8 231.28-119.9 275-157.4 95.63-82-129.85-149.4 116.83-231.8 201.06-67.1 178.91-685.6-271.1-595.6z" fill="url(#C)"/></g><g clip-path="url(#D)"><path d="M663 527.37l.07 2.78a156.78 156.78 0 0 0 1.42 16l1.44 8.7q1.27 6.43 3.08 12.79l2.73 8.68q1.83 5.25 4 10.41a155.82 155.82 0 0 0 13.1 24.27l4.39 6.27c46.87 63.89 133.66 78.53 197.4 32a150.85 150.85 0 0 0 12.18-10 146.9 146.9 0 0 0 22-25.08c.22-.3.43-.61.65-.92a155.57 155.57 0 0 0 9.65-16.11c1.6-3.1 3.12-6.27 4.48-9.47a88.3 88.3 0 0 0 1.37-3.21c1.75-4.23 3.28-8.52 4.63-12.89 1-3.06 1.85-6.17 2.6-9.29.33-1.32.65-2.64.93-4 .77-3.46 1.42-7 1.91-10.47.63-4 1.07-8 1.37-12 .39-5 .54-10.1.44-15.15a157.48 157.48 0 0 0-20.55-75.06c-1.68-2.94-3.47-5.85-5.36-8.7a150.8 150.8 0 0 0-20.79-25.16c-42.14-40.87-103.83-51.86-156.5-27.48a144.29 144.29 0 0 0-24.47 14.44 147 147 0 0 0-21.85 19.61q-4.62 5-8.65 10.35a152.94 152.94 0 0 0-21.37 38.59q-1.74 4.55-3.16 9.2-2.13 6.79-3.63 13.79a160.14 160.14 0 0 0-3.3 24.32c-.06.58-.08 1.16-.1 1.73a123.64 123.64 0 0 0-.11 11.06z" transform="translate(0 49.86)" fill="url(#E)"/><g style="mix-blend-mode:overlay" class="D B"><path d="M673.3 517.13a1909.29 1909.29 0 0 1 268.46 29.51l9.1 1.69a156.45 156.45 0 0 0-7.64-29.34c-82.15-18.65-164.31-34.08-248.55-40.45a152.94 152.94 0 0 0-21.37 38.59z"/></g><g style="mix-blend-mode:overlay" class="C B"><path d="M663.11 566.17c21.47.64 43 1.71 64.52 3.16A1933 1933 0 0 1 941.76 596l9.3 1.73c.63-4 1.07-8 1.37-12 .39-5 .54-10.1.44-15.15-93.32-21.47-186.55-39.07-282.73-44.24q-2.13 6.79-3.63 13.79a160.14 160.14 0 0 0-3.3 24.32c-.06.57-.08 1.15-.1 1.72z"/></g><g style="mix-blend-mode:overlay" class="D B"><path d="M663 577.23l.07 2.78a156.78 156.78 0 0 0 1.42 16l1.44 8.7a1875.76 1875.76 0 0 1 205.48 18.31q35.42 5.08 69.63 11.31c1.75-4.23 3.28-8.52 4.63-12.89 1-3.06 1.85-6.17 2.6-9.29.33-1.32.65-2.64.93-4-73.38-16.82-146.73-31.14-221.52-38.87-21.35-2.19-42.81-3.86-64.42-4.89-.06.58-.08 1.16-.1 1.73-.25 3.74-.29 7.42-.16 11.11z"/></g><g style="mix-blend-mode:overlay" class="D B"><path d="M664.44 596.02l1.44 8.7q1.27 6.43 3.08 12.79l2.73 8.68q1.83 5.25 4 10.41a1896.64 1896.64 0 0 1 228.82 23q10.52 1.72 20.93 3.51a155.57 155.57 0 0 0 9.65-16.11c1.6-3.1 3.12-6.27 4.48-9.47l-68.26-14.52c-68.11-13.46-136.69-23.57-206.87-26.99z"/></g><g style="mix-blend-mode:overlay" class="D B"><path d="M671.69 626.19q1.83 5.25 4 10.41a155.82 155.82 0 0 0 13.15 24.26l4.39 6.27a1910.13 1910.13 0 0 1 209.58 22 146.9 146.9 0 0 0 22-25.08l-20.28-4.43c-76.74-16.33-153.8-29.06-232.84-33.43z"/></g><g style="mix-blend-mode:overlay" class="D B"><path d="M663 577.23l.07 2.78c28.88 1 57.89 2.74 86.75 5.14 63.15 5.26 125.65 13.69 184.87 24.46l13.58 2.55c.33-1.32.65-2.64.93-4 .77-3.46 1.42-7 1.91-10.47.63-4 1.07-8 1.37-12-94.48-21.83-188.72-40.02-285.97-45.57a160.14 160.14 0 0 0-3.3 24.32c-.06.58-.08 1.16-.1 1.73a123.64 123.64 0 0 0-.11 11.06z"/></g><g style="mix-blend-mode:overlay" class="D B"><path d="M663 577.23l.07 2.78a156.78 156.78 0 0 0 1.42 16l1.44 8.7q1.27 6.43 3.08 12.79a1911.93 1911.93 0 0 1 265.68 29.41l.5.1c1.6-3.1 3.12-6.27 4.48-9.47a88.3 88.3 0 0 0 1.37-3.21c1.75-4.23 3.28-8.52 4.63-12.89-65-14.94-129.91-28-195.85-36.3-28.82-3.62-57.68-6.28-86.82-7.91z"/></g><g style="mix-blend-mode:overlay" class="D B"><path d="M703.32 468.19a1927.4 1927.4 0 0 1 229 27.32c-1.68-2.94-3.47-5.85-5.36-8.7a150.8 150.8 0 0 0-20.79-25.16c-51.89-11.24-103.9-20.89-156.53-27.51a144.29 144.29 0 0 0-24.47 14.44 147 147 0 0 0-21.85 19.61z"/></g><ellipse cx="766.33" cy="634.26" rx=".44" ry=".46" class="B"/><path d="M391.43 260.59l.15 5.52a308.23 308.23 0 0 0 2.83 31.89c.77 5.79 1.76 11.55 2.86 17.31 1.69 8.54 3.71 17.05 6.14 25.47 1.61 5.8 3.45 11.56 5.44 17.28 2.42 6.95 5.1 13.87 8 20.71A311.88 311.88 0 0 0 443 427.08c2.83 4.26 5.69 8.43 8.74 12.49 93.32 127.19 266.1 156.33 393 63.61a297.16 297.16 0 0 0 68.12-69.76c.44-.58.84-1.2 1.28-1.81a307.77 307.77 0 0 0 19.22-32.08c3.19-6.19 6.21-12.49 8.93-18.86 1-2.13 1.87-4.25 2.71-6.38 3.49-8.43 6.54-17 9.23-25.66q2.91-9.17 5.18-18.52c.66-2.62 1.28-5.25 1.83-7.88 1.55-6.88 2.83-13.84 3.82-20.83 1.25-7.92 2.13-15.92 2.72-23.92.77-10 1.07-20.1.88-30.15a318.57 318.57 0 0 0-19.21-102.69 309.88 309.88 0 0 0-21.71-46.77c-3.35-5.83-6.91-11.63-10.66-17.31a300.28 300.28 0 0 0-41.4-50.09C791.78-51 668.89-72.84 564-24.29a285.14 285.14 0 0 0-48.68 28.75 289.8 289.8 0 0 0-43.5 39 265.44 265.44 0 0 0-17.23 20.6A304.86 304.86 0 0 0 412 140.93q-3.46 9-6.28 18.32-4.25 13.5-7.24 27.44a320.22 320.22 0 0 0-6.48 48.43c-.11 1.16-.15 2.31-.19 3.44-.45 7.3-.53 14.68-.38 22.03z" transform="translate(0 49.86)" fill="url(#F)"/><g style="mix-blend-mode:overlay" class="C B"><path d="M412 190.79c181.31 6.61 364.68 27.86 534.49 58.75l18.11 3.36a311.06 311.06 0 0 0-15.21-58.4c-163.52-37.14-327.09-67.87-494.8-80.54A304.86 304.86 0 0 0 412 190.79z"/></g><g style="mix-blend-mode:overlay" class="C B"><path d="M391.76 288.42c42.73 1.27 85.64 3.4 128.44 6.3a3844.81 3844.81 0 0 1 426.33 53.14l18.51 3.44c1.25-7.92 2.13-15.92 2.72-23.92.77-10 1.07-20.1.88-30.15-185.79-42.75-371.39-77.8-562.88-88.08q-4.25 13.5-7.24 27.44a320.22 320.22 0 0 0-6.52 48.39c-.16 1.16-.2 2.31-.24 3.44z"/></g><g style="mix-blend-mode:overlay" class="C B"><path d="M391.43 310.45l.15 5.52a308.23 308.23 0 0 0 2.83 31.89c.77 5.79 1.76 11.55 2.86 17.31 137.22 4.41 275.84 17.28 409.1 36.45q70.49 10.14 138.63 22.53c3.49-8.43 6.54-17 9.23-25.66q2.91-9.17 5.18-18.52c.66-2.62 1.28-5.25 1.83-7.88-146.07-33.47-292.11-62-441-77.37-42.5-4.37-85.23-7.7-128.25-9.74-.11 1.16-.15 2.31-.19 3.44-.44 7.3-.52 14.68-.37 22.03z"/></g><g style="mix-blend-mode:overlay" class="C B"><path d="M394.41 347.86c.77 5.79 1.76 11.55 2.86 17.31 1.69 8.54 3.71 17.05 6.14 25.47 1.61 5.8 3.45 11.56 5.44 17.28 2.42 6.95 5.1 13.87 8 20.71 153.65 5.8 308.65 22.11 455.57 45.84q20.94 3.42 41.66 7a307.77 307.77 0 0 0 19.22-32.08c3.19-6.19 6.21-12.49 8.93-18.86l-135.9-28.91c-135.68-26.82-272.2-46.96-411.92-53.76z"/></g><g style="mix-blend-mode:overlay" class="C B"><path d="M408.85 407.92c2.42 6.95 5.1 13.87 8 20.71A311.88 311.88 0 0 0 443 476.94c2.83 4.26 5.69 8.43 8.74 12.49A3798.48 3798.48 0 0 1 869 533.22a292.93 292.93 0 0 0 43.87-49.94l-40.38-8.81c-152.87-32.5-306.29-57.86-463.64-66.55z"/></g><g style="mix-blend-mode:overlay" class="C B"><path d="M391.43 310.45l.15 5.52c57.5 2 115.25 5.45 172.71 10.24 125.71 10.48 250.16 27.25 368.06 48.7l27 5.06c.66-2.62 1.28-5.25 1.83-7.88 1.55-6.88 2.83-13.84 3.82-20.83 1.25-7.92 2.13-15.92 2.72-23.92-188-43.6-375.62-79.74-569.24-90.79a320.22 320.22 0 0 0-6.48 48.43c-.11 1.16-.15 2.31-.19 3.44-.45 7.3-.53 14.68-.38 22.03z"/></g><g style="mix-blend-mode:overlay" class="C B"><path d="M391.43 310.45l.15 5.52a308.23 308.23 0 0 0 2.83 31.89c.77 5.79 1.76 11.55 2.86 17.31 1.69 8.54 3.71 17.05 6.14 25.47 179.51 6.84 360.85 28 528.94 58.55.33.08.66.12 1 .2 3.19-6.19 6.21-12.49 8.93-18.86 1-2.13 1.87-4.25 2.71-6.38 3.49-8.43 6.54-17 9.23-25.66-129.36-29.76-258.65-55.77-389.92-72.28-57.21-7.22-114.75-12.63-172.87-15.76z"/></g><g style="mix-blend-mode:overlay" class="C B"><path d="M471.82 93.36a3837.59 3837.59 0 0 1 455.9 54.37c-3.35-5.83-6.91-11.63-10.66-17.31a300.28 300.28 0 0 0-41.4-50.09C772.35 57.95 668.81 38.74 564 25.57a285.14 285.14 0 0 0-48.68 28.75 289.8 289.8 0 0 0-43.5 39.04z"/></g></g></svg>