<svg width="99" height="30" viewBox="0 0 99 30" fill="none" xmlns="http://www.w3.org/2000/svg">
<path d="M2 13C0.89543 13 0 13.8954 0 15C0 16.1046 0.89543 17 2 17V13ZM98.4142 16.4142C99.1953 15.6332 99.1953 14.3668 98.4142 13.5858L85.6863 0.857864C84.9052 0.0768156 83.6389 0.0768156 82.8579 0.857864C82.0768 1.63891 82.0768 2.90524 82.8579 3.68629L94.1716 15L82.8579 26.3137C82.0768 27.0948 82.0768 28.3611 82.8579 29.1421C83.6389 29.9232 84.9052 29.9232 85.6863 29.1421L98.4142 16.4142ZM2 17H97V13H2V17Z" fill="#010101"/>
</svg>
